<svg width="24" height="24" viewBox="0 0 24 24" fill="none" xmlns="http://www.w3.org/2000/svg">
<path d="M1.5 17.6923L1.875 16.1923H6.86525L6.4905 17.6923H1.5ZM3.5 13.8077L3.875 12.3077H9.86525L9.4905 13.8077H3.5ZM18.5558 20.0095L19.0558 15.9905L19.7713 10.0865L20.0308 8.0155L18.5558 20.0095ZM6.27875 21.5C5.84425 21.5 5.47125 21.3554 5.15975 21.0663C4.84808 20.7773 4.69225 20.4218 4.69225 20H18.248C18.3378 20 18.4148 19.9712 18.4788 19.9135C18.5429 19.8558 18.5814 19.7821 18.5943 19.6923L19.9828 8.3615C19.9956 8.27183 19.9699 8.19175 19.9058 8.12125C19.8416 8.05075 19.7647 8.0155 19.675 8.0155H17.0308L16.7365 10.3423C16.7097 10.5551 16.6151 10.7231 16.4528 10.8462C16.2906 10.9692 16.1032 11.0205 15.8905 11C15.684 10.9795 15.5193 10.8907 15.3963 10.7337C15.2731 10.5766 15.225 10.3948 15.252 10.1885L15.5155 8.0155H11.0308L10.7365 10.327C10.7097 10.5398 10.6151 10.7103 10.4528 10.8385C10.2906 10.9667 10.1032 11.0205 9.8905 11C9.684 10.9795 9.51667 10.8882 9.3885 10.726C9.26033 10.5638 9.20967 10.3795 9.2365 10.173L9.5 8.0155H6.0865C6.14683 7.55767 6.34267 7.19067 6.674 6.9145C7.0055 6.63817 7.393 6.5 7.8365 6.5H9.68275L9.7115 6.25C9.84483 5.0705 10.2532 4.15067 10.9365 3.4905C11.6198 2.83017 12.5513 2.5 13.7308 2.5C14.7526 2.5 15.5953 2.883 16.2588 3.649C16.9221 4.415 17.2263 5.31408 17.1713 6.34625L17.152 6.5H19.7213C20.2443 6.51033 20.6801 6.71167 21.0288 7.104C21.3776 7.49617 21.5167 7.95383 21.446 8.477L20.0328 19.8615C19.9724 20.3358 19.7643 20.7275 19.4085 21.0365C19.0528 21.3455 18.6378 21.5 18.1635 21.5H6.27875ZM11.1828 6.5H15.6673L15.6865 6.34625C15.7288 5.71292 15.5382 5.1635 15.1145 4.698C14.6907 4.23267 14.1653 4 13.5385 4C12.8525 4 12.3131 4.19842 11.9203 4.59525C11.5273 4.99208 11.291 5.54367 11.2115 6.25L11.1828 6.5Z" fill="#669900"/>
</svg>
