<svg width="40" height="40" viewBox="0 0 40 40" fill="none" xmlns="http://www.w3.org/2000/svg">
<path d="M11.9229 35.9296C11.1132 35.9296 10.4247 35.6458 9.8575 35.0783C9.29028 34.5111 9.00667 33.8226 9.00667 33.0129C9.00667 32.2029 9.29028 31.5143 9.8575 30.9471C10.4247 30.3799 11.1132 30.0963 11.9229 30.0963C12.7329 30.0963 13.4215 30.3799 13.9888 30.9471C14.556 31.5143 14.8396 32.2029 14.8396 33.0129C14.8396 33.8226 14.556 34.5111 13.9888 35.0783C13.4215 35.6458 12.7329 35.9296 11.9229 35.9296ZM28.0771 35.9296C27.2671 35.9296 26.5785 35.6458 26.0113 35.0783C25.444 34.5111 25.1604 33.8226 25.1604 33.0129C25.1604 32.2029 25.444 31.5143 26.0113 30.9471C26.5785 30.3799 27.2671 30.0963 28.0771 30.0963C28.8868 30.0963 29.5753 30.3799 30.1425 30.9471C30.7097 31.5143 30.9933 32.2029 30.9933 33.0129C30.9933 33.8226 30.7097 34.5111 30.1425 35.0783C29.5753 35.6458 28.8868 35.9296 28.0771 35.9296ZM10.0254 9.58333L14.25 18.4296H25.6121C25.7082 18.4296 25.7937 18.4056 25.8687 18.3575C25.9435 18.3094 26.0075 18.2426 26.0608 18.1571L30.5321 10.0321C30.5963 9.91458 30.6015 9.81042 30.5479 9.71958C30.4946 9.62875 30.4037 9.58333 30.2754 9.58333H10.0254ZM8.82708 7.08333H31.9679C32.6496 7.08333 33.165 7.37347 33.5142 7.95375C33.8636 8.53375 33.8803 9.12611 33.5642 9.73083L28.2242 19.4038C27.9508 19.8846 27.5893 20.259 27.1396 20.5271C26.6896 20.7954 26.1965 20.9296 25.6604 20.9296H13.5L11.5704 24.455C11.4849 24.5833 11.4822 24.7222 11.5625 24.8717C11.6425 25.0214 11.7626 25.0963 11.9229 25.0963H30.9933V27.5963H11.9229C10.8118 27.5963 9.97694 27.1171 9.41833 26.1588C8.85944 25.2004 8.83972 24.2436 9.35917 23.2883L11.7371 19.0129L5.67333 6.25H2.5V3.75H7.24375L8.82708 7.08333Z" fill="#888888"/>
</svg>
