<svg width="24" height="24" viewBox="0 0 24 24" fill="none" xmlns="http://www.w3.org/2000/svg">
<path d="M19.5406 20.577L13.2598 14.296C12.7598 14.7088 12.1848 15.0319 11.5348 15.2652C10.8848 15.4986 10.2124 15.6152 9.51759 15.6152C7.80843 15.6152 6.36193 15.0235 5.17809 13.84C3.99426 12.6565 3.40234 11.2103 3.40234 9.50149C3.40234 7.79282 3.99409 6.34615 5.17759 5.16149C6.36109 3.97699 7.80726 3.38474 9.51609 3.38474C11.2248 3.38474 12.6714 3.97665 13.8561 5.16048C15.0406 6.34432 15.6328 7.79082 15.6328 9.49999C15.6328 10.2142 15.513 10.8962 15.2733 11.5462C15.0335 12.1962 14.7136 12.7616 14.3136 13.2422L20.5943 19.523L19.5406 20.577ZM9.51759 14.1155C10.8061 14.1155 11.8974 13.6683 12.7916 12.774C13.6859 11.8798 14.1331 10.7885 14.1331 9.49999C14.1331 8.21149 13.6859 7.12015 12.7916 6.22598C11.8974 5.33165 10.8061 4.88449 9.51759 4.88449C8.22909 4.88449 7.13776 5.33165 6.24359 6.22598C5.34926 7.12015 4.90209 8.21149 4.90209 9.49999C4.90209 10.7885 5.34926 11.8798 6.24359 12.774C7.13776 13.6683 8.22909 14.1155 9.51759 14.1155Z" fill="#888888"/>
</svg>
